<svg width="20" height="20" viewBox="0 0 20 20" fill="none" xmlns="http://www.w3.org/2000/svg">
<mask id="path-1-inside-1_7_70" fill="white">
<path d="M5.05164 16.9883C5.8398 17.4986 6.66504 17.8624 7.51346 18.0845C8.38507 18.3207 9.28912 18.4058 10.1885 18.3491C12.5623 18.2073 14.6578 17.1017 16.1229 15.4195C17.5925 13.7422 18.4317 11.4931 18.2926 9.06912L18.288 9.05022V9.0455C18.1443 6.63573 17.0594 4.50947 15.4182 3.02109C13.7677 1.52799 11.5609 0.672757 9.18713 0.809783L9.16395 0.814508H9.15931C6.79949 0.960984 4.7132 2.06664 3.24816 3.74402C1.78312 5.4214 0.943973 7.67051 1.08306 10.0945V10.1181C1.13406 10.9497 1.28705 11.7293 1.53741 12.4664C1.80167 13.2319 2.16329 13.9501 2.62228 14.6163C2.70109 14.7297 2.715 14.8762 2.664 14.9943L1.14797 18.7696L4.66684 16.9646C4.79201 16.9032 4.94037 16.9127 5.05164 16.9883ZM11.4496 14.7013C10.221 14.6305 8.56124 13.4445 7.22602 11.9797C5.88616 10.5103 4.84765 8.72892 4.87547 7.48151C4.86619 7.21219 4.90328 6.92396 4.97746 6.62156C5.05164 6.31916 5.16291 6.00731 5.31591 5.68128C5.3669 5.55843 5.42254 5.44503 5.47817 5.33635C5.52917 5.23713 5.59408 5.12373 5.66826 4.99615C5.71462 4.92055 5.78416 4.86385 5.85834 4.83078C6.31732 4.59925 6.66967 4.4953 7.01275 4.54728C7.37901 4.60398 7.67573 4.8166 8.01417 5.2324C8.17644 5.42613 8.32943 5.65293 8.47779 5.90808C8.61688 6.14906 8.74669 6.41366 8.86723 6.69243C8.99241 6.93341 9.01095 7.21219 8.91823 7.50986C8.84405 7.76029 8.69569 8.02489 8.47315 8.29422C8.40825 8.36982 8.3248 8.41707 8.23671 8.43124C8.19498 8.44542 8.15789 8.46432 8.13471 8.48794C8.09299 8.52574 8.0559 8.59189 8.01881 8.68639C8.01417 8.70057 8.00953 8.71474 8.0049 8.72419C7.99099 8.74782 8.04199 8.74782 8.07908 8.83287C8.23671 9.20615 8.63078 9.74007 9.08513 10.2409C9.53484 10.7371 10.0263 11.1812 10.3786 11.3702C10.4574 11.4127 10.4528 11.4647 10.476 11.4553C10.4899 11.4458 10.5038 11.4411 10.5131 11.4364C10.6104 11.408 10.6753 11.3749 10.7171 11.3419C10.7449 11.3135 10.7634 11.2757 10.782 11.2237C10.8098 11.134 10.8608 11.0631 10.9303 11.0158V11.0111C11.2039 10.8079 11.4728 10.6756 11.7231 10.6189C12.0152 10.5575 12.2748 10.5906 12.4974 10.7276C12.7709 10.8741 13.0213 11.0253 13.2438 11.1859C13.4756 11.3466 13.6842 11.5214 13.8604 11.701C14.2406 12.0742 14.426 12.3908 14.4538 12.7641C14.477 13.1185 14.3472 13.4681 14.0829 13.9217C14.0412 13.9973 13.981 14.0493 13.916 14.0824V14.0871C13.8094 14.1391 13.6935 14.1958 13.5683 14.2477C13.4524 14.2997 13.3365 14.347 13.2299 14.3895C12.9007 14.5171 12.5855 14.6068 12.2934 14.6588C11.992 14.7108 11.7046 14.725 11.4496 14.7013ZM7.82409 11.4127C9.03877 12.7452 10.4945 13.8178 11.5006 13.8697H11.5238C11.7092 13.8934 11.9225 13.8792 12.1543 13.8367C12.4 13.7941 12.6643 13.7185 12.9424 13.6146C13.0444 13.5721 13.1418 13.5343 13.2438 13.487C13.3041 13.4587 13.369 13.4303 13.4432 13.3925C13.5822 13.1421 13.6471 12.9625 13.6379 12.8255C13.6286 12.679 13.5173 12.5231 13.2948 12.2963C13.1511 12.1546 12.9749 12.0081 12.7755 11.8663C12.5762 11.7246 12.3536 11.5876 12.1126 11.4647V11.46C12.0987 11.4553 12.0847 11.4458 12.0708 11.4364C12.0384 11.4127 11.9781 11.4127 11.8993 11.4316C11.7834 11.4553 11.6536 11.5214 11.5052 11.6206C11.445 11.7529 11.3615 11.8663 11.2549 11.9608C11.1251 12.0837 10.9628 12.164 10.7588 12.2302C10.5409 12.3105 10.2813 12.2585 9.99846 12.1073C9.56266 11.8758 8.99241 11.3655 8.48243 10.8032C7.97708 10.2457 7.52737 9.62667 7.32801 9.16362C7.1982 8.85649 7.16575 8.57772 7.27238 8.36037C7.35119 8.16664 7.44392 8.01072 7.56446 7.89259C7.67109 7.78864 7.787 7.71776 7.92145 7.66579C8.03272 7.51931 8.10689 7.38229 8.13935 7.26889C8.16717 7.18856 8.16717 7.12714 8.14862 7.08934C8.13935 7.07516 8.13471 7.06099 8.12544 7.04681C8.01881 6.78221 7.89827 6.54123 7.77772 6.32861C7.65255 6.12071 7.52273 5.93171 7.38828 5.76633C7.18429 5.5159 7.03593 5.39305 6.89221 5.36943C6.75313 5.35053 6.56768 5.40723 6.30805 5.53008C6.2756 5.59151 6.23851 5.65766 6.20142 5.72853C6.14578 5.83721 6.09479 5.93643 6.05306 6.02621C5.92788 6.30498 5.83052 6.57431 5.77025 6.82001C5.70998 7.06099 5.68216 7.27361 5.69144 7.46734V7.48624C5.65898 8.50684 6.60477 10.0756 7.82409 11.4127ZM7.31411 18.8594C6.45641 18.6326 5.62189 18.2735 4.81983 17.7773L0.58235 19.9508C0.480354 20.0075 0.355176 20.017 0.239272 19.9697C0.0399151 19.8894 -0.0528088 19.6532 0.0306427 19.45L1.86194 14.8903C1.41687 14.2147 1.05988 13.4917 0.800251 12.7263C0.526716 11.923 0.355176 11.0678 0.304178 10.1653C0.299542 10.1512 0.299542 10.1323 0.299542 10.1134C0.15582 7.48151 1.06915 5.03868 2.664 3.21009C4.25885 1.38624 6.53059 0.17663 9.11295 0.0159794C9.12686 0.0159794 9.1454 0.0112544 9.16395 0.0112544V0.0159794C11.7463 -0.135221 14.1479 0.795608 15.9374 2.42574C17.727 4.04642 18.9139 6.36641 19.0715 8.99352C19.0715 9.01242 19.0761 9.03132 19.0761 9.0455V9.05022C19.2199 11.6821 18.3065 14.1249 16.7117 15.9535C15.1122 17.7821 12.8265 18.9917 10.2303 19.1476C9.25203 19.2043 8.2738 19.1145 7.31411 18.8594Z"/>
</mask>
<path d="M5.05164 16.9883C5.8398 17.4986 6.66504 17.8624 7.51346 18.0845C8.38507 18.3207 9.28912 18.4058 10.1885 18.3491C12.5623 18.2073 14.6578 17.1017 16.1229 15.4195C17.5925 13.7422 18.4317 11.4931 18.2926 9.06912L18.288 9.05022V9.0455C18.1443 6.63573 17.0594 4.50947 15.4182 3.02109C13.7677 1.52799 11.5609 0.672757 9.18713 0.809783L9.16395 0.814508H9.15931C6.79949 0.960984 4.7132 2.06664 3.24816 3.74402C1.78312 5.4214 0.943973 7.67051 1.08306 10.0945V10.1181C1.13406 10.9497 1.28705 11.7293 1.53741 12.4664C1.80167 13.2319 2.16329 13.9501 2.62228 14.6163C2.70109 14.7297 2.715 14.8762 2.664 14.9943L1.14797 18.7696L4.66684 16.9646C4.79201 16.9032 4.94037 16.9127 5.05164 16.9883ZM11.4496 14.7013C10.221 14.6305 8.56124 13.4445 7.22602 11.9797C5.88616 10.5103 4.84765 8.72892 4.87547 7.48151C4.86619 7.21219 4.90328 6.92396 4.97746 6.62156C5.05164 6.31916 5.16291 6.00731 5.31591 5.68128C5.3669 5.55843 5.42254 5.44503 5.47817 5.33635C5.52917 5.23713 5.59408 5.12373 5.66826 4.99615C5.71462 4.92055 5.78416 4.86385 5.85834 4.83078C6.31732 4.59925 6.66967 4.4953 7.01275 4.54728C7.37901 4.60398 7.67573 4.8166 8.01417 5.2324C8.17644 5.42613 8.32943 5.65293 8.47779 5.90808C8.61688 6.14906 8.74669 6.41366 8.86723 6.69243C8.99241 6.93341 9.01095 7.21219 8.91823 7.50986C8.84405 7.76029 8.69569 8.02489 8.47315 8.29422C8.40825 8.36982 8.3248 8.41707 8.23671 8.43124C8.19498 8.44542 8.15789 8.46432 8.13471 8.48794C8.09299 8.52574 8.0559 8.59189 8.01881 8.68639C8.01417 8.70057 8.00953 8.71474 8.0049 8.72419C7.99099 8.74782 8.04199 8.74782 8.07908 8.83287C8.23671 9.20615 8.63078 9.74007 9.08513 10.2409C9.53484 10.7371 10.0263 11.1812 10.3786 11.3702C10.4574 11.4127 10.4528 11.4647 10.476 11.4553C10.4899 11.4458 10.5038 11.4411 10.5131 11.4364C10.6104 11.408 10.6753 11.3749 10.7171 11.3419C10.7449 11.3135 10.7634 11.2757 10.782 11.2237C10.8098 11.134 10.8608 11.0631 10.9303 11.0158V11.0111C11.2039 10.8079 11.4728 10.6756 11.7231 10.6189C12.0152 10.5575 12.2748 10.5906 12.4974 10.7276C12.7709 10.8741 13.0213 11.0253 13.2438 11.1859C13.4756 11.3466 13.6842 11.5214 13.8604 11.701C14.2406 12.0742 14.426 12.3908 14.4538 12.7641C14.477 13.1185 14.3472 13.4681 14.0829 13.9217C14.0412 13.9973 13.981 14.0493 13.916 14.0824V14.0871C13.8094 14.1391 13.6935 14.1958 13.5683 14.2477C13.4524 14.2997 13.3365 14.347 13.2299 14.3895C12.9007 14.5171 12.5855 14.6068 12.2934 14.6588C11.992 14.7108 11.7046 14.725 11.4496 14.7013ZM7.82409 11.4127C9.03877 12.7452 10.4945 13.8178 11.5006 13.8697H11.5238C11.7092 13.8934 11.9225 13.8792 12.1543 13.8367C12.4 13.7941 12.6643 13.7185 12.9424 13.6146C13.0444 13.5721 13.1418 13.5343 13.2438 13.487C13.3041 13.4587 13.369 13.4303 13.4432 13.3925C13.5822 13.1421 13.6471 12.9625 13.6379 12.8255C13.6286 12.679 13.5173 12.5231 13.2948 12.2963C13.1511 12.1546 12.9749 12.0081 12.7755 11.8663C12.5762 11.7246 12.3536 11.5876 12.1126 11.4647V11.46C12.0987 11.4553 12.0847 11.4458 12.0708 11.4364C12.0384 11.4127 11.9781 11.4127 11.8993 11.4316C11.7834 11.4553 11.6536 11.5214 11.5052 11.6206C11.445 11.7529 11.3615 11.8663 11.2549 11.9608C11.1251 12.0837 10.9628 12.164 10.7588 12.2302C10.5409 12.3105 10.2813 12.2585 9.99846 12.1073C9.56266 11.8758 8.99241 11.3655 8.48243 10.8032C7.97708 10.2457 7.52737 9.62667 7.32801 9.16362C7.1982 8.85649 7.16575 8.57772 7.27238 8.36037C7.35119 8.16664 7.44392 8.01072 7.56446 7.89259C7.67109 7.78864 7.787 7.71776 7.92145 7.66579C8.03272 7.51931 8.10689 7.38229 8.13935 7.26889C8.16717 7.18856 8.16717 7.12714 8.14862 7.08934C8.13935 7.07516 8.13471 7.06099 8.12544 7.04681C8.01881 6.78221 7.89827 6.54123 7.77772 6.32861C7.65255 6.12071 7.52273 5.93171 7.38828 5.76633C7.18429 5.5159 7.03593 5.39305 6.89221 5.36943C6.75313 5.35053 6.56768 5.40723 6.30805 5.53008C6.2756 5.59151 6.23851 5.65766 6.20142 5.72853C6.14578 5.83721 6.09479 5.93643 6.05306 6.02621C5.92788 6.30498 5.83052 6.57431 5.77025 6.82001C5.70998 7.06099 5.68216 7.27361 5.69144 7.46734V7.48624C5.65898 8.50684 6.60477 10.0756 7.82409 11.4127ZM7.31411 18.8594C6.45641 18.6326 5.62189 18.2735 4.81983 17.7773L0.58235 19.9508C0.480354 20.0075 0.355176 20.017 0.239272 19.9697C0.0399151 19.8894 -0.0528088 19.6532 0.0306427 19.45L1.86194 14.8903C1.41687 14.2147 1.05988 13.4917 0.800251 12.7263C0.526716 11.923 0.355176 11.0678 0.304178 10.1653C0.299542 10.1512 0.299542 10.1323 0.299542 10.1134C0.15582 7.48151 1.06915 5.03868 2.664 3.21009C4.25885 1.38624 6.53059 0.17663 9.11295 0.0159794C9.12686 0.0159794 9.1454 0.0112544 9.16395 0.0112544V0.0159794C11.7463 -0.135221 14.1479 0.795608 15.9374 2.42574C17.727 4.04642 18.9139 6.36641 19.0715 8.99352C19.0715 9.01242 19.0761 9.03132 19.0761 9.0455V9.05022C19.2199 11.6821 18.3065 14.1249 16.7117 15.9535C15.1122 17.7821 12.8265 18.9917 10.2303 19.1476C9.25203 19.2043 8.2738 19.1145 7.31411 18.8594Z" stroke="#143550" stroke-width="4" mask="url(#path-1-inside-1_7_70)"/>
</svg>
