<svg width="10" height="20" viewBox="0 0 10 20" fill="none" xmlns="http://www.w3.org/2000/svg">
<mask id="path-1-inside-1_7_68" fill="white">
<path d="M3.03485 7.84128H0.818006V10.2409L3.03485 10.2456C3.2575 10.2456 3.44143 10.4204 3.44143 10.6424L3.44627 19.2017H5.90029V10.6424C5.90029 10.4204 6.08422 10.2409 6.31171 10.2409H9.18199V7.84128H6.31171C6.08422 7.84128 5.90029 7.66179 5.90029 7.43977C5.90029 6.41001 5.90029 5.65895 5.96805 5.07794C6.04066 4.4308 6.20039 4.00094 6.52953 3.70335C6.53921 3.69863 6.54889 3.68918 6.55857 3.67974C6.84414 3.4341 7.22168 3.31129 7.74443 3.25461C8.13166 3.21209 8.60116 3.20265 9.18199 3.20265V0.803023C7.75895 0.803023 6.66505 0.81247 5.84705 0.906944C5.0242 1.00614 4.48693 1.19036 4.15295 1.54936C3.80929 1.92253 3.63504 2.50827 3.54308 3.41049C3.44143 4.36939 3.44143 5.68729 3.44143 7.43977C3.44143 7.66179 3.2575 7.84128 3.03485 7.84128ZM0.411423 7.03826H2.62343C2.62343 5.47473 2.63311 4.27492 2.72991 3.33491C2.84124 2.25791 3.07357 1.52574 3.54792 1.01559C4.03195 0.491261 4.7241 0.236183 5.75024 0.113368C6.69894 0 7.93804 0 9.58858 0C9.81607 0 10 0.179499 10 0.401512V3.59943C10 3.82145 9.81607 4.00094 9.58858 4.00094C8.8335 4.00094 8.25266 4.00094 7.83156 4.04818C7.48306 4.08597 7.24589 4.1521 7.10068 4.27492L7.08616 4.28909C6.91675 4.44025 6.82962 4.71422 6.78122 5.16769C6.72798 5.61644 6.72314 6.23051 6.72314 7.03826H9.58858C9.81607 7.03826 10 7.21776 10 7.43977V10.6424C10 10.8597 9.81607 11.0392 9.58858 11.0392H6.72314V19.5985H6.7183C6.7183 19.8205 6.53437 20 6.31171 20L3.03485 19.9953C2.8122 19.9953 2.62827 19.8205 2.62827 19.5985L2.62343 11.0392H0.411423C0.18393 11.0392 0 10.8597 0 10.6424V7.43977C0 7.21776 0.18393 7.03826 0.411423 7.03826Z"/>
</mask>
<path d="M0.818006 7.84128V5.84128H-1.18199V7.84128H0.818006ZM0.818006 10.2409H-1.18199V12.2367L0.813745 12.2409L0.818006 10.2409ZM3.03485 10.2456L3.03059 12.2456H3.03485V10.2456ZM3.44143 10.6424H1.44143L1.44143 10.6435L3.44143 10.6424ZM3.44627 19.2017L1.44627 19.2028L1.4474 21.2017H3.44627V19.2017ZM5.90029 19.2017V21.2017H7.90029V19.2017H5.90029ZM9.18199 10.2409V12.2409H11.182V10.2409H9.18199ZM9.18199 7.84128H11.182V5.84128H9.18199V7.84128ZM5.96805 5.07794L7.95461 5.30963L7.95559 5.30092L5.96805 5.07794ZM6.52953 3.70335L5.65246 1.90592L5.39812 2.03003L5.1882 2.21983L6.52953 3.70335ZM6.55857 3.67974L5.25438 2.16346L5.20671 2.20446L5.1617 2.24839L6.55857 3.67974ZM7.74443 3.25461L7.96004 5.24295L7.9627 5.24266L7.74443 3.25461ZM9.18199 3.20265V5.20264H11.182V3.20265H9.18199ZM9.18199 0.803023H11.182V-1.19698H9.18199V0.803023ZM5.84705 0.906944L5.61759 -1.07987L5.60767 -1.07868L5.84705 0.906944ZM4.15295 1.54936L2.68861 0.187079L2.68177 0.194516L4.15295 1.54936ZM3.54308 3.41049L5.53195 3.62131L5.53277 3.6133L3.54308 3.41049ZM2.62343 7.03826V9.03826H4.62343V7.03826H2.62343ZM2.72991 3.33491L0.740513 3.12927L0.740435 3.13002L2.72991 3.33491ZM3.54792 1.01559L5.01261 2.37747L5.01748 2.3722L3.54792 1.01559ZM5.75024 0.113368L5.51293 -1.8725L5.51256 -1.87246L5.75024 0.113368ZM7.83156 4.04818L8.04716 6.03654L8.05451 6.03572L7.83156 4.04818ZM7.10068 4.27492L5.80912 2.74787L5.75477 2.79383L5.70383 2.84355L7.10068 4.27492ZM7.08616 4.28909L8.41769 5.78141L8.45103 5.75166L8.483 5.72046L7.08616 4.28909ZM6.78122 5.16769L8.76729 5.40333L8.76867 5.39165L8.76992 5.37996L6.78122 5.16769ZM6.72314 7.03826H4.72314V9.03826H6.72314V7.03826ZM6.72314 11.0392V9.03921H4.72314V11.0392H6.72314ZM6.72314 19.5985V21.5985H8.72314V19.5985H6.72314ZM6.7183 19.5985V17.5985H4.7183V19.5985H6.7183ZM6.31171 20L6.30883 22H6.31171V20ZM3.03485 19.9953L3.03773 17.9953H3.03485V19.9953ZM2.62827 19.5985H4.62827L4.62827 19.5974L2.62827 19.5985ZM2.62343 11.0392L4.62343 11.0381L4.6223 9.03921H2.62343V11.0392ZM3.03485 5.84128H0.818006V9.84128H3.03485V5.84128ZM-1.18199 7.84128V10.2409H2.81801V7.84128H-1.18199ZM0.813745 12.2409L3.03059 12.2456L3.03911 8.24563L0.822267 8.24091L0.813745 12.2409ZM3.03485 12.2456C2.21492 12.2456 1.44143 11.586 1.44143 10.6424H5.44143C5.44143 9.25485 4.30008 8.24563 3.03485 8.24563V12.2456ZM1.44143 10.6435L1.44627 19.2028L5.44627 19.2006L5.44143 10.6413L1.44143 10.6435ZM3.44627 21.2017H5.90029V17.2017H3.44627V21.2017ZM7.90029 19.2017V10.6424H3.90029V19.2017H7.90029ZM7.90029 10.6424C7.90029 11.5707 7.14253 12.2409 6.31171 12.2409V8.24091C5.02591 8.24091 3.90029 9.27013 3.90029 10.6424H7.90029ZM6.31171 12.2409H9.18199V8.24091H6.31171V12.2409ZM11.182 10.2409V7.84128H7.18199V10.2409H11.182ZM9.18199 5.84128H6.31171V9.84128H9.18199V5.84128ZM6.31171 5.84128C7.14253 5.84128 7.90029 6.51152 7.90029 7.43977H3.90029C3.90029 8.81205 5.02591 9.84128 6.31171 9.84128V5.84128ZM7.90029 7.43977C7.90029 6.36027 7.90352 5.74753 7.95459 5.30963L3.98152 4.84625C3.89707 5.57037 3.90029 6.45975 3.90029 7.43977H7.90029ZM7.95559 5.30092C7.96759 5.19388 7.98074 5.11861 7.99215 5.06744C8.00348 5.01666 8.01124 4.99809 8.00975 5.00184C8.00764 5.00711 7.99608 5.03432 7.96985 5.07309C7.94282 5.11306 7.90885 5.15252 7.87085 5.18688L5.1882 2.21983C4.32405 3.00115 4.07419 4.02004 3.98052 4.85496L7.95559 5.30092ZM7.40659 5.50078C7.62943 5.39205 7.78154 5.26656 7.84281 5.21424C7.87964 5.18279 7.9085 5.15595 7.9253 5.14007C7.94121 5.12503 7.95504 5.11147 7.95543 5.11108L5.1617 2.24839C5.14675 2.26297 5.19042 2.21924 5.24529 2.17239C5.29687 2.12834 5.4393 2.00994 5.65246 1.90592L7.40659 5.50078ZM7.86275 5.19601C7.83006 5.22413 7.79742 5.24619 7.76894 5.26216C7.75532 5.2698 7.74414 5.2752 7.73619 5.27875C7.72829 5.28227 7.72398 5.28378 7.72407 5.28375C7.72472 5.28352 7.74196 5.27757 7.78178 5.26938C7.82188 5.26113 7.87963 5.25167 7.96004 5.24295L7.52883 1.26626C6.82693 1.34237 5.98146 1.53808 5.25438 2.16346L7.86275 5.19601ZM7.9627 5.24266C8.23001 5.21331 8.60169 5.20264 9.18199 5.20264V1.20265C8.60063 1.20265 8.0333 1.21087 7.52617 1.26655L7.9627 5.24266ZM11.182 3.20265V0.803023H7.18199V3.20265H11.182ZM9.18199 -1.19698C7.79108 -1.19698 6.57294 -1.19019 5.61759 -1.07985L6.07651 2.89374C6.75717 2.81513 7.72683 2.80302 9.18199 2.80302V-1.19698ZM5.60767 -1.07868C4.69355 -0.968479 3.53272 -0.720227 2.68863 0.187096L5.61727 2.91163C5.52432 3.01154 5.45314 3.02777 5.51146 3.00617C5.58595 2.97857 5.75494 2.93253 6.08642 2.89257L5.60767 -1.07868ZM2.68177 0.194516C1.86739 1.07882 1.65166 2.2436 1.55339 3.20767L5.53277 3.6133C5.57168 3.23161 5.61961 3.01238 5.65822 2.89188C5.69322 2.78268 5.69908 2.82283 5.62414 2.90421L2.68177 0.194516ZM1.55422 3.19966C1.43868 4.28964 1.44143 5.73596 1.44143 7.43977H5.44143C5.44143 5.63863 5.44418 4.44915 5.53194 3.62131L1.55422 3.19966ZM1.44143 7.43977C1.44143 6.52675 2.18364 5.84128 3.03485 5.84128V9.84128C4.33136 9.84128 5.44143 8.79682 5.44143 7.43977H1.44143ZM0.411423 9.03826H2.62343V5.03826H0.411423V9.03826ZM4.62343 7.03826C4.62343 5.44957 4.63512 4.3581 4.71939 3.53979L0.740435 3.13002C0.631096 4.19173 0.623427 5.49988 0.623427 7.03826H4.62343ZM4.71931 3.54055C4.81711 2.59444 4.9893 2.40253 5.0126 2.37746L2.08323 -0.346286C1.15785 0.648959 0.865368 1.92139 0.740513 3.12927L4.71931 3.54055ZM5.01748 2.3722C5.02399 2.36515 5.143 2.20032 5.98792 2.0992L5.51256 -1.87246C4.30521 -1.72795 3.0399 -1.38262 2.07836 -0.341022L5.01748 2.3722ZM5.98755 2.09924C6.78972 2.00338 7.88721 2 9.58858 2V-2C7.98888 -2 6.60815 -2.00338 5.51293 -1.8725L5.98755 2.09924ZM9.58858 2C8.75776 2 8 1.32977 8 0.401512H12C12 -0.970768 10.8744 -2 9.58858 -2V2ZM8 0.401512V3.59943H12V0.401512H8ZM8 3.59943C8 2.67118 8.75776 2.00094 9.58858 2.00094V6.00094C10.8744 6.00094 12 4.97171 12 3.59943H8ZM9.58858 2.00094C8.88456 2.00094 8.16818 1.99788 7.60861 2.06065L8.05451 6.03572C8.33715 6.00401 8.78243 6.00094 9.58858 6.00094V2.00094ZM7.61595 2.05984C7.23463 2.10119 6.45233 2.20385 5.80912 2.74787L8.39224 5.80197C8.19129 5.97192 8.01332 6.03058 7.96903 6.04398C7.92533 6.0572 7.93665 6.04851 8.04716 6.03653L7.61595 2.05984ZM5.70383 2.84355L5.68931 2.85772L8.483 5.72046L8.49752 5.70629L5.70383 2.84355ZM5.75462 2.79677C4.963 3.5031 4.84091 4.50201 4.79252 4.95542L8.76992 5.37996C8.78723 5.21783 8.80119 5.202 8.78176 5.2591C8.7581 5.32867 8.66659 5.55933 8.41769 5.78141L5.75462 2.79677ZM4.79515 4.93205C4.72504 5.52293 4.72314 6.26754 4.72314 7.03826H8.72314C8.72314 6.19349 8.73091 5.70994 8.76729 5.40333L4.79515 4.93205ZM6.72314 9.03826H9.58858V5.03826H6.72314V9.03826ZM9.58858 9.03826C8.75776 9.03826 8 8.36803 8 7.43977H12C12 6.0675 10.8744 5.03826 9.58858 5.03826V9.03826ZM8 7.43977V10.6424H12V7.43977H8ZM8 10.6424C8 9.69427 8.77336 9.03921 9.58858 9.03921V13.0392C10.8588 13.0392 12 12.0251 12 10.6424H8ZM9.58858 9.03921H6.72314V13.0392H9.58858V9.03921ZM4.72314 11.0392V19.5985H8.72314V11.0392H4.72314ZM6.72314 17.5985H6.7183V21.5985H6.72314V17.5985ZM4.7183 19.5985C4.7183 18.6855 5.4605 18 6.31171 18V22C7.60823 22 8.7183 20.9555 8.7183 19.5985H4.7183ZM6.3146 18L3.03773 17.9953L3.03197 21.9953L6.30883 22L6.3146 18ZM3.03485 17.9953C3.85478 17.9953 4.62827 18.6549 4.62827 19.5985H0.628267C0.628267 20.9861 1.76962 21.9953 3.03485 21.9953V17.9953ZM4.62827 19.5974L4.62343 11.0381L0.623427 11.0403L0.628267 19.5996L4.62827 19.5974ZM2.62343 9.03921H0.411423V13.0392H2.62343V9.03921ZM0.411423 9.03921C1.22664 9.03921 2 9.69427 2 10.6424H-2C-2 12.0251 -0.858779 13.0392 0.411423 13.0392V9.03921ZM2 10.6424V7.43977H-2V10.6424H2ZM2 7.43977C2 8.36802 1.24224 9.03826 0.411423 9.03826V5.03826C-0.874384 5.03826 -2 6.0675 -2 7.43977H2Z" fill="#143550" mask="url(#path-1-inside-1_7_68)"/>
</svg>
