<svg width="24" height="20" viewBox="0 0 24 20" fill="none" xmlns="http://www.w3.org/2000/svg">
<mask id="path-1-inside-1_7_67" fill="white">
<path d="M0.459072 0.102542L23.3114 0.00122559C23.4027 -0.00531093 23.494 0.0142987 23.5786 0.0600544C23.8018 0.184248 23.8762 0.458783 23.7443 0.674488L12.2166 19.7677C12.1524 19.8821 12.034 19.967 11.892 19.9932C11.6384 20.0357 11.3983 19.8755 11.3544 19.6304L9.26119 8.30588L0.164879 0.893461C-0.0312493 0.733316 -0.0549206 0.452245 0.107393 0.262686C0.198694 0.158102 0.327192 0.102542 0.459072 0.102542ZM22.0603 1.68111L10.2013 8.29934L12.0442 18.2708L22.0603 1.68111ZM21.597 0.903266L1.717 0.991508L9.7346 7.52149L21.597 0.903266Z"/>
</mask>
<path d="M0.459072 0.102542V2.10256L0.467939 2.10252L0.459072 0.102542ZM23.3114 0.00122559L23.3203 2.00121L23.3874 2.00091L23.4543 1.99612L23.3114 0.00122559ZM23.5786 0.0600544L24.5511 -1.68758L24.5409 -1.69327L24.5306 -1.69884L23.5786 0.0600544ZM23.7443 0.674488L22.0379 -0.368772L22.0321 -0.359229L23.7443 0.674488ZM12.2166 19.7677L10.5045 18.734L10.4883 18.7608L10.4729 18.7882L12.2166 19.7677ZM11.892 19.9932L12.2225 21.9657L12.2383 21.963L12.2541 21.9601L11.892 19.9932ZM11.3544 19.6304L13.323 19.2773L13.321 19.2669L11.3544 19.6304ZM9.26119 8.30588L11.2279 7.94237L11.0943 7.2197L10.5246 6.75546L9.26119 8.30588ZM0.164879 0.893461L-1.10006 2.44263L-1.09853 2.44388L0.164879 0.893461ZM0.107393 0.262686L-1.39926 -1.05261L-1.40555 -1.0454L-1.41178 -1.03813L0.107393 0.262686ZM22.0603 1.68111L23.7724 2.71482L27.6692 -3.73948L21.0856 -0.0653314L22.0603 1.68111ZM10.2013 8.29934L9.2266 6.5529L7.97382 7.25205L8.23456 8.66283L10.2013 8.29934ZM12.0442 18.2708L10.0775 18.6343L11.0346 23.8126L13.7563 19.3045L12.0442 18.2708ZM21.597 0.903266L22.5714 2.64983L21.5881 -1.09671L21.597 0.903266ZM1.717 0.991508L1.70812 -1.00847L-3.87521 -0.983689L0.453989 2.54225L1.717 0.991508ZM9.7346 7.52149L8.47159 9.07224L9.52388 9.92928L10.709 9.26806L9.7346 7.52149ZM0.467939 2.10252L23.3203 2.00121L23.3026 -1.99875L0.450205 -1.89744L0.467939 2.10252ZM23.4543 1.99612C23.157 2.0174 22.8694 1.95037 22.6266 1.81895L24.5306 -1.69884C24.1187 -1.92177 23.6485 -2.02802 23.1686 -1.99367L23.4543 1.99612ZM22.6061 1.80769C21.8585 1.39166 21.5635 0.407135 22.0379 -0.368756L25.4506 1.71773C26.1888 0.51043 25.7451 -1.02317 24.5511 -1.68758L22.6061 1.80769ZM22.0321 -0.359229L10.5045 18.734L13.9288 20.8014L25.4564 1.7082L22.0321 -0.359229ZM10.4729 18.7882C10.7128 18.3611 11.1145 18.1027 11.5299 18.0262L12.2541 21.9601C12.9535 21.8314 13.592 21.403 13.9604 20.7471L10.4729 18.7882ZM11.5616 18.0207C12.3072 17.8958 13.1593 18.3647 13.3229 19.2774L9.38576 19.9834C9.63736 21.3864 10.9696 22.1756 12.2225 21.9657L11.5616 18.0207ZM13.321 19.2669L11.2279 7.94237L7.2945 8.66939L9.38767 19.9939L13.321 19.2669ZM10.5246 6.75546L1.42829 -0.656958L-1.09853 2.44388L7.99778 9.8563L10.5246 6.75546ZM1.42982 -0.655708C2.10404 -0.105188 2.19409 0.900714 1.62656 1.5635L-1.41178 -1.03813C-2.30393 0.00377667 -2.16654 1.57182 -1.10006 2.44263L1.42982 -0.655708ZM1.61404 1.57798C1.3172 1.91801 0.891909 2.10254 0.459072 2.10254V-1.89746C-0.237525 -1.89746 -0.919814 -1.60181 -1.39926 -1.05261L1.61404 1.57798ZM21.0856 -0.0653314L9.2266 6.5529L11.1759 10.0458L23.0349 3.42755L21.0856 -0.0653314ZM8.23456 8.66283L10.0775 18.6343L14.0109 17.9073L12.1679 7.93585L8.23456 8.66283ZM13.7563 19.3045L23.7724 2.71482L20.3481 0.647399L10.332 17.2371L13.7563 19.3045ZM21.5881 -1.09671L1.70812 -1.00847L1.72588 2.99149L21.6059 2.90325L21.5881 -1.09671ZM0.453989 2.54225L8.47159 9.07224L10.9976 5.97075L2.98001 -0.559234L0.453989 2.54225ZM10.709 9.26806L22.5714 2.64983L20.6226 -0.843295L8.76017 5.77493L10.709 9.26806Z" fill="#143550" mask="url(#path-1-inside-1_7_67)"/>
</svg>
