<svg width="22" height="20" viewBox="0 0 22 20" fill="none" xmlns="http://www.w3.org/2000/svg">
<mask id="path-1-inside-1_82_1423" fill="white">
<path d="M10.736 7.1415H8.72799C8.70157 7.1415 8.67514 7.1415 8.65313 7.13678C7.17791 6.94779 5.826 6.35249 4.69867 5.6438C3.37758 4.817 2.34273 3.78704 1.74824 3.07835C1.67338 3.47522 1.65136 3.99492 1.72622 4.58077C1.8187 5.32726 2.07411 6.17296 2.58053 7.01866C2.60254 7.06118 2.62016 7.08953 2.63777 7.11315C2.69502 7.19347 2.73465 7.25017 2.76107 7.35883C2.85795 7.76042 2.73465 7.87854 2.28548 8.0061L2.26787 8.01082C2.05209 8.06752 1.79668 8.09114 1.53687 8.07224H1.50604C1.64696 8.57305 1.87154 9.08331 2.17099 9.57939C2.60254 10.2928 3.18823 10.9779 3.89281 11.5826L3.90161 11.5921C3.92363 11.6062 3.94565 11.6251 3.96326 11.6393C4.07335 11.7244 4.14381 11.7763 4.18345 11.9511C4.27592 12.3622 4.13501 12.4378 3.74749 12.5417C3.48767 12.6079 3.23226 12.6409 2.99887 12.6409H2.96804C3.12217 12.9055 3.35997 13.2032 3.6418 13.5055C4.40363 14.3229 5.43408 15.1024 6.00214 15.4284L6.08141 15.471C6.28838 15.5796 6.39407 15.6316 6.39407 15.9245V15.9292C6.38966 16.1702 6.30599 16.2363 6.12985 16.3734L6.05058 16.4348C5.12142 17.1765 4.05134 17.5639 3.0385 17.7624C2.69062 17.8333 2.35154 17.8758 2.03007 17.9088C3.01208 18.3671 4.0029 18.6931 4.98491 18.8916C7.47736 19.3876 9.91256 19.0616 12.0395 18.0081C14.1665 16.9545 15.9896 15.178 17.2534 12.7779C17.9844 11.3889 18.5305 9.78727 18.8431 7.99665C19.2791 5.47844 19.398 5.34143 20.358 4.2217L20.587 3.95713H19.9572C19.7327 3.95713 19.5477 3.75869 19.5477 3.51301C19.5477 3.42797 19.5697 3.34765 19.6094 3.28151L20.2919 2.12398C19.7062 2.21848 19.2439 2.25627 18.8651 2.25155C18.2618 2.24682 17.8699 2.13816 17.5793 1.9728C17.5485 1.9539 17.522 1.93028 17.4956 1.90665C16.6501 1.23104 15.787 0.909764 14.9855 0.881416C14.2369 0.853069 13.5367 1.07985 12.9511 1.49561C12.3654 1.9161 11.8942 2.52557 11.6036 3.27206C11.2733 4.12249 11.1808 5.14772 11.4186 6.25328V6.27217C11.4274 6.30525 11.445 6.36194 11.4538 6.40919L11.4582 6.42809C11.5155 6.65959 11.5419 6.78243 11.3834 6.97614C11.2381 7.15567 11.1236 7.15095 10.8946 7.1415H10.736ZM8.7456 6.258H10.5775C10.3529 5.03433 10.4718 3.89571 10.8461 2.93661C11.1984 2.02477 11.7753 1.27828 12.4975 0.763301C13.2197 0.248321 14.0872 -0.03043 15.012 0.00264212C15.972 0.0357143 16.998 0.408957 17.9844 1.20269C18.1694 1.3019 18.438 1.36805 18.8695 1.37277C19.3672 1.3775 20.0629 1.29246 21.0581 1.08457V1.0893C21.155 1.06568 21.2607 1.08457 21.3532 1.14599C21.5469 1.27828 21.6042 1.54758 21.4809 1.75547L20.7015 3.07835H21.4721C21.5734 3.07363 21.6791 3.1067 21.7627 3.18229C21.9345 3.34293 21.9521 3.62168 21.8068 3.80594C21.4589 4.2406 21.1858 4.56187 20.9613 4.82173C20.1422 5.77609 20.0453 5.88948 19.649 8.15729C19.3231 10.0424 18.7418 11.7338 17.9668 13.2079C16.6149 15.7781 14.6641 17.6821 12.383 18.8065C10.1063 19.9357 7.49938 20.29 4.83518 19.7562C3.30712 19.4491 1.76145 18.849 0.246603 17.9372C0.101283 17.871 0 17.7151 0 17.5356C0 17.2899 0.184952 17.0915 0.409537 17.0915C1.07889 17.0915 1.97282 17.0773 2.89318 16.8978C3.68143 16.7419 4.50051 16.4631 5.23591 15.967C4.60179 15.5418 3.72987 14.8473 3.06052 14.1244C2.45282 13.4725 1.99484 12.7732 1.96842 12.1685C1.96402 12.1212 1.96842 12.0692 1.98163 12.0173C2.03888 11.781 2.26346 11.6393 2.47924 11.7007C2.57172 11.7291 2.69062 11.748 2.82272 11.7574C2.29429 11.2283 1.84072 10.6519 1.48402 10.0613C0.990816 9.24394 0.673755 8.39352 0.559261 7.56199C0.550453 7.49112 0.554857 7.4108 0.581279 7.33521C0.664948 7.11315 0.907147 6.99976 1.11412 7.08953C1.25503 7.15095 1.41797 7.18402 1.58531 7.19347C1.62934 7.19347 1.67338 7.19819 1.71741 7.19819C1.25063 6.32887 1.00843 5.46899 0.911551 4.69889C0.766231 3.54136 0.955587 2.55865 1.22861 2.04367C1.29467 1.90665 1.42237 1.81216 1.57209 1.79799C1.80108 1.78381 1.99484 1.96807 2.00805 2.21375C2.01686 2.33659 3.22786 3.70672 5.10821 4.88314C6.15627 5.53514 7.39809 6.08792 8.7456 6.258Z"/>
</mask>
<path d="M8.65313 7.13678L9.07273 5.18129L8.99059 5.16366L8.90726 5.15299L8.65313 7.13678ZM4.69867 5.6438L5.7631 3.95058L5.7597 3.94846L4.69867 5.6438ZM1.74824 3.07835L3.28051 1.79299L0.565865 -1.44313L-0.2171 2.70762L1.74824 3.07835ZM1.72622 4.58077L3.71106 4.33488L3.71009 4.32727L1.72622 4.58077ZM2.58053 7.01866L4.35655 6.09901L4.32814 6.04416L4.29641 5.99117L2.58053 7.01866ZM2.63777 7.11315L4.26642 5.95233L4.25395 5.93484L4.24111 5.91762L2.63777 7.11315ZM2.76107 7.35883L4.7053 6.8898L4.70445 6.8863L2.76107 7.35883ZM2.28548 8.0061L2.8036 9.93782L2.81777 9.93402L2.83187 9.93002L2.28548 8.0061ZM2.26787 8.01082L2.77612 9.94519L2.78599 9.94255L2.26787 8.01082ZM1.53687 8.07224L1.68196 6.07751L1.60951 6.07224H1.53687V8.07224ZM1.50604 8.07224V6.07224H-1.13438L-0.419197 8.61396L1.50604 8.07224ZM2.17099 9.57939L0.458744 10.6129L0.459725 10.6146L2.17099 9.57939ZM3.89281 11.5826L5.35583 10.219L5.27991 10.1375L5.19541 10.065L3.89281 11.5826ZM3.90161 11.5921L2.43859 12.9557L2.60895 13.1385L2.81906 13.2738L3.90161 11.5921ZM3.96326 11.6393L2.70945 13.1975L2.72491 13.2099L2.74062 13.2221L3.96326 11.6393ZM4.18345 11.9511L6.13468 11.5121L6.13394 11.5089L4.18345 11.9511ZM3.74749 12.5417L4.24091 14.4799L4.25329 14.4767L4.26562 14.4734L3.74749 12.5417ZM2.96804 12.6409V10.6409H-0.511646L1.23989 13.6476L2.96804 12.6409ZM3.6418 13.5055L2.17876 14.8692L3.6418 13.5055ZM6.00214 15.4284L5.00668 17.1631L5.03149 17.1773L5.0567 17.1909L6.00214 15.4284ZM6.08141 15.471L5.13597 17.2334L5.14382 17.2376L5.1517 17.2417L6.08141 15.471ZM6.39407 15.9292L8.39373 15.9658L8.39407 15.9475V15.9292H6.39407ZM6.12985 16.3734L7.35486 17.9543L7.35779 17.952L6.12985 16.3734ZM6.05058 16.4348L4.82557 14.8538L4.81412 14.8627L4.80281 14.8717L6.05058 16.4348ZM3.0385 17.7624L2.65398 15.7997L2.64662 15.8011L2.63928 15.8026L3.0385 17.7624ZM2.03007 17.9088L1.82539 15.9193L-5.37498 16.6601L1.18428 19.7212L2.03007 17.9088ZM4.98491 18.8916L4.58877 20.8519L4.5945 20.8531L4.98491 18.8916ZM17.2534 12.7779L19.0231 13.7098L19.0233 13.7094L17.2534 12.7779ZM18.8431 7.99665L20.8133 8.34066L20.8138 8.33782L18.8431 7.99665ZM20.358 4.2217L18.8457 2.91284L18.8396 2.91994L20.358 4.2217ZM20.587 3.95713L22.0992 5.26597L24.963 1.95713L20.587 1.95713V3.95713ZM19.6094 3.28151L21.325 4.3095L21.3321 4.29739L19.6094 3.28151ZM20.2919 2.12398L22.0147 3.13987L24.1781 -0.528854L19.9734 0.149516L20.2919 2.12398ZM18.8651 2.25155L18.8901 0.251682L18.8808 0.251609L18.8651 2.25155ZM17.5793 1.9728L16.5339 3.67787L16.5618 3.69496L16.5902 3.71113L17.5793 1.9728ZM17.4956 1.90665L18.8286 0.415677L18.7874 0.378774L18.7441 0.344212L17.4956 1.90665ZM14.9855 0.881416L14.9099 2.87999L14.9148 2.88017L14.9855 0.881416ZM12.9511 1.49561L11.7933 -0.135269L11.7847 -0.129036L12.9511 1.49561ZM11.6036 3.27206L9.73983 2.54643L9.73922 2.54802L11.6036 3.27206ZM11.4186 6.25328H13.4186V6.04062L13.3739 5.83271L11.4186 6.25328ZM11.4186 6.27217H9.4186V6.53392L9.48596 6.78685L11.4186 6.27217ZM11.4538 6.40919L9.4877 6.7757L9.49589 6.81961L9.50603 6.86311L11.4538 6.40919ZM11.4582 6.42809L9.51043 6.88201L9.51349 6.89512L9.51672 6.90819L11.4582 6.42809ZM11.3834 6.97614L9.8356 5.70944L9.82881 5.71784L11.3834 6.97614ZM10.8946 7.1415L10.977 5.1432L10.9358 5.1415H10.8946V7.1415ZM8.7456 6.258L8.49515 8.24226L8.61988 8.258H8.7456V6.258ZM10.5775 6.258V8.258H12.978L12.5447 5.89696L10.5775 6.258ZM10.8461 2.93661L12.7093 3.66375L12.7117 3.65739L10.8461 2.93661ZM15.012 0.00264212L14.9405 2.00137L14.9431 2.00146L15.012 0.00264212ZM17.9844 1.20269L16.7306 2.76087L16.8753 2.87731L17.039 2.96511L17.9844 1.20269ZM18.8695 1.37277L18.8476 3.37266L18.8506 3.37268L18.8695 1.37277ZM21.0581 1.08457H23.0581V-1.37635L20.6492 -0.873173L21.0581 1.08457ZM21.0581 1.0893H19.0581V3.63557L21.5319 3.03237L21.0581 1.0893ZM21.3532 1.14599L22.4809 -0.505748L22.4704 -0.512955L22.4597 -0.520026L21.3532 1.14599ZM21.4809 1.75547L19.7607 0.735169L19.7577 0.740193L21.4809 1.75547ZM20.7015 3.07835L18.9783 2.06308L17.2017 5.07835H20.7015V3.07835ZM21.4721 3.07835V5.07835H21.5187L21.5653 5.07618L21.4721 3.07835ZM21.7627 3.18229L23.1289 1.72164L23.1163 1.70985L23.1035 1.69828L21.7627 3.18229ZM21.8068 3.80594L23.3682 5.05567L23.3727 5.05008L23.3771 5.04445L21.8068 3.80594ZM20.9613 4.82173L19.4481 3.51392L19.4436 3.51918L20.9613 4.82173ZM19.649 8.15729L17.6788 7.81298L17.6782 7.81661L19.649 8.15729ZM17.9668 13.2079L19.7369 14.1389L19.737 14.1386L17.9668 13.2079ZM12.383 18.8065L11.4987 17.0126L11.4943 17.0148L12.383 18.8065ZM4.83518 19.7562L4.44112 21.717L4.44221 21.7172L4.83518 19.7562ZM0.246603 17.9372L1.27804 16.2237L1.17966 16.1645L1.07514 16.1169L0.246603 17.9372ZM2.89318 16.8978L3.27611 18.8608L3.28125 18.8598L2.89318 16.8978ZM5.23591 15.967L6.35437 17.6251L8.81962 15.9621L6.34978 14.3059L5.23591 15.967ZM3.06052 14.1244L4.52802 12.7656L4.52356 12.7608L3.06052 14.1244ZM1.96842 12.1685L3.96652 12.0812L3.96436 12.0319L3.95979 11.9829L1.96842 12.1685ZM1.98163 12.0173L3.91999 12.51L3.92274 12.4992L3.92537 12.4883L1.98163 12.0173ZM2.47924 11.7007L3.0654 9.78855L3.04615 9.78265L3.02678 9.77714L2.47924 11.7007ZM2.82272 11.7574L2.68004 13.7523L8.02307 14.1345L4.2379 10.3442L2.82272 11.7574ZM1.48402 10.0613L-0.228376 11.0946L-0.227952 11.0953L1.48402 10.0613ZM0.559261 7.56199L-1.42547 7.80864L-1.42385 7.82173L-1.42205 7.8348L0.559261 7.56199ZM0.581279 7.33521L-1.29027 6.63002L-1.29877 6.65257L-1.30672 6.67531L0.581279 7.33521ZM1.11412 7.08953L1.91323 5.25611L1.90993 5.25468L1.11412 7.08953ZM1.58531 7.19347L1.47255 9.19029L1.52888 9.19347H1.58531V7.19347ZM1.71741 7.19819V9.19819H5.0614L3.47947 6.25206L1.71741 7.19819ZM0.911551 4.69889L-1.07287 4.94802L-1.07281 4.94852L0.911551 4.69889ZM1.22861 2.04367L2.99564 2.98048L3.01356 2.94667L3.03018 2.91221L1.22861 2.04367ZM1.57209 1.79799L1.44854 -0.198193L1.41603 -0.196181L1.3836 -0.193111L1.57209 1.79799ZM2.00805 2.21375L0.0109393 2.32114L0.011898 2.33897L0.0131748 2.35678L2.00805 2.21375ZM5.10821 4.88314L4.04742 6.57866L4.05176 6.58136L5.10821 4.88314ZM10.736 5.1415H8.72799V9.1415H10.736V5.1415ZM8.72799 5.1415C8.70557 5.1415 8.73997 5.14112 8.78211 5.14308C8.82439 5.14505 8.9334 5.15139 9.07273 5.18129L8.23352 9.09226C8.39487 9.12688 8.5281 9.13558 8.5957 9.13874C8.66317 9.14188 8.72399 9.1415 8.72799 9.1415V5.1415ZM8.90726 5.15299C7.79717 5.01078 6.72029 4.55232 5.7631 3.95059L3.63424 7.33702C4.9317 8.15266 6.55865 8.8848 8.39899 9.12056L8.90726 5.15299ZM5.7597 3.94846C4.65506 3.25711 3.77338 2.38054 3.28051 1.79299L0.215969 4.36371C0.912076 5.19354 2.10011 6.37689 3.63764 7.33915L5.7597 3.94846ZM-0.2171 2.70762C-0.334641 3.33075 -0.356286 4.06235 -0.257647 4.83428L3.71009 4.32727C3.65901 3.9275 3.6814 3.61969 3.71358 3.44908L-0.2171 2.70762ZM-0.258606 4.82666C-0.133751 5.83451 0.207536 6.94881 0.864641 8.04615L4.29641 5.99117C3.94068 5.39711 3.77115 4.82 3.71105 4.33489L-0.258606 4.82666ZM0.804505 7.93831C0.860744 8.04692 0.934173 8.17423 1.03443 8.30869L4.24111 5.91762C4.30614 6.00483 4.34434 6.07545 4.35655 6.09901L0.804505 7.93831ZM1.00913 8.27398C1.04764 8.32802 0.998578 8.26364 0.950326 8.17409C0.886743 8.05609 0.843313 7.93671 0.817696 7.83136L4.70445 6.8863C4.58308 6.38715 4.351 6.071 4.26642 5.95233L1.00913 8.27398ZM0.816848 7.82786C0.815625 7.82279 0.807628 7.78928 0.801086 7.73469C0.794555 7.6802 0.787402 7.58798 0.795855 7.46933C0.814888 7.20215 0.91016 6.863 1.15293 6.55274C1.37081 6.2743 1.60878 6.14731 1.69453 6.10598C1.77655 6.06645 1.81452 6.06076 1.73909 6.08218L2.83187 9.93002C2.99633 9.88331 3.77542 9.69216 4.30316 9.01771C4.97539 8.1586 4.78377 7.21508 4.7053 6.88981L0.816848 7.82786ZM1.76737 6.07438L1.74975 6.0791L2.78599 9.94255L2.8036 9.93782L1.76737 6.07438ZM1.75962 6.07648C1.77097 6.0735 1.76639 6.07561 1.74709 6.07727C1.72855 6.07887 1.7057 6.07924 1.68196 6.07751L1.39177 10.067C1.85428 10.1006 2.33155 10.062 2.77611 9.94517L1.75962 6.07648ZM1.53687 6.07224H1.50604V10.0722H1.53687V6.07224ZM-0.419197 8.61396C-0.224976 9.30422 0.075962 9.9788 0.458745 10.6129L3.88323 8.54584C3.66712 8.18782 3.51889 7.84189 3.43128 7.53052L-0.419197 8.61396ZM0.459725 10.6146C1.01004 11.5243 1.7384 12.3691 2.5902 13.1003L5.19541 10.065C4.63805 9.58659 4.19505 9.06131 3.88225 8.54422L0.459725 10.6146ZM2.42978 12.9463L2.43859 12.9557L5.36464 10.2284L5.35583 10.219L2.42978 12.9463ZM2.81906 13.2738C2.78299 13.2505 2.7545 13.2303 2.7353 13.2162C2.71589 13.202 2.70136 13.1906 2.69376 13.1846C2.68645 13.1789 2.68182 13.175 2.68485 13.1775C2.68551 13.1781 2.6862 13.1786 2.68756 13.1797C2.68873 13.1807 2.69052 13.1821 2.69243 13.1837C2.69613 13.1867 2.70227 13.1917 2.70945 13.1975L5.21708 10.0811C5.21976 10.0833 5.22461 10.0872 5.21375 10.0784C5.207 10.0729 5.19219 10.0608 5.17442 10.0467C5.14229 10.0213 5.0737 9.96801 4.98417 9.91038L2.81906 13.2738ZM2.74062 13.2221C2.78416 13.2557 2.76012 13.2378 2.7331 13.2145C2.69522 13.1819 2.61955 13.113 2.53721 13.0099C2.34555 12.77 2.26436 12.5319 2.23295 12.3933L6.13394 11.5089C6.0629 11.1955 5.92666 10.8441 5.66234 10.5132C5.44624 10.2427 5.18828 10.0584 5.18591 10.0566L2.74062 13.2221ZM2.23222 12.3901C2.23102 12.3848 2.22326 12.3499 2.21746 12.293C2.21171 12.2365 2.20589 12.1395 2.21764 12.0148C2.2443 11.7316 2.35708 11.3716 2.63356 11.0523C2.87656 10.7717 3.1343 10.6548 3.21063 10.6224C3.28362 10.5914 3.31989 10.5857 3.22936 10.61L4.26562 14.4734C4.36885 14.4457 4.56805 14.3916 4.77356 14.3044C4.98241 14.2157 5.34226 14.0347 5.65737 13.6708C6.397 12.8167 6.20574 11.828 6.13467 11.5121L2.23222 12.3901ZM3.25406 10.6035C3.13853 10.6329 3.0492 10.6409 2.99887 10.6409V14.6409C3.41533 14.6409 3.83682 14.5828 4.24091 14.4799L3.25406 10.6035ZM2.99887 10.6409H2.96804V14.6409H2.99887V10.6409ZM1.23989 13.6476C1.50012 14.0944 1.84917 14.5156 2.17876 14.8692L5.10484 12.1419C4.87076 11.8907 4.74423 11.7167 4.6962 11.6342L1.23989 13.6476ZM2.17876 14.8692C3.07304 15.8286 4.26009 16.7346 5.00668 17.1631L6.99761 13.6938C6.60806 13.4702 5.73421 12.8171 5.10484 12.1419L2.17876 14.8692ZM5.0567 17.1909L5.13597 17.2334L7.02685 13.7085L6.94758 13.666L5.0567 17.1909ZM5.1517 17.2417C5.23044 17.2831 5.19227 17.2645 5.1468 17.2357C5.08449 17.1962 4.92973 17.0913 4.77452 16.9037C4.40569 16.458 4.39407 16.0017 4.39407 15.9245H8.39407C8.39407 15.5544 8.3296 14.9256 7.85618 14.3536C7.64868 14.1028 7.42869 13.9462 7.28836 13.8573C7.16486 13.779 7.03586 13.7132 7.01112 13.7002L5.1517 17.2417ZM4.39407 15.9245V15.9292H8.39407V15.9245H4.39407ZM4.3944 15.8927C4.39529 15.844 4.40105 15.7245 4.44272 15.5676C4.48826 15.3961 4.56515 15.2231 4.67388 15.0636C4.77452 14.916 4.87309 14.8237 4.91147 14.7893C4.93978 14.764 4.95923 14.7501 4.9019 14.7947L7.35779 17.952C7.37353 17.9398 7.72273 17.6926 7.97884 17.3169C8.31185 16.8285 8.38709 16.3291 8.39373 15.9658L4.3944 15.8927ZM4.90484 14.7924L4.82557 14.8538L7.2756 18.0157L7.35486 17.9543L4.90484 14.7924ZM4.80281 14.8717C4.19634 15.3559 3.45475 15.6428 2.65398 15.7997L3.42303 19.7251C4.64792 19.4851 6.0465 18.9972 7.29836 17.9978L4.80281 14.8717ZM2.63928 15.8026C2.38408 15.8546 2.11865 15.8892 1.82539 15.9193L2.23475 19.8983C2.58442 19.8624 2.99716 19.8119 3.43773 19.7221L2.63928 15.8026ZM1.18428 19.7212C2.30425 20.2439 3.44567 20.621 4.58878 20.8519L5.38104 16.9312C4.56013 16.7653 3.71991 16.4904 2.87587 16.0965L1.18428 19.7212ZM4.5945 20.8531C7.50622 21.4326 10.3922 21.056 12.9273 19.8002L11.1518 16.2159C9.43291 17.0673 7.4485 17.3427 5.37532 16.93L4.5945 20.8531ZM12.9273 19.8002C15.4566 18.5473 17.5767 16.4566 19.0231 13.7098L15.4838 11.8461C14.4025 13.8995 12.8763 15.3616 11.1518 16.2159L12.9273 19.8002ZM19.0233 13.7094C19.8583 12.1226 20.4676 10.3207 20.8133 8.34066L16.8729 7.65264C16.5933 9.25382 16.1105 10.6552 15.4835 11.8465L19.0233 13.7094ZM20.8138 8.33782C21.0409 7.0259 21.1484 6.59769 21.2496 6.35549C21.3121 6.2058 21.3614 6.12407 21.8763 5.52346L18.8396 2.91994C18.3945 3.43906 17.9044 3.9857 17.5585 4.814C17.2512 5.54979 17.0813 6.44919 16.8724 7.65548L20.8138 8.33782ZM21.8702 5.53055L22.0992 5.26597L19.0747 2.64828L18.8457 2.91286L21.8702 5.53055ZM20.587 1.95713H19.9572V5.95713H20.587V1.95713ZM19.9572 1.95713C20.9808 1.95713 21.5477 2.80336 21.5477 3.51301H17.5477C17.5477 4.71402 18.4845 5.95713 19.9572 5.95713V1.95713ZM21.5477 3.51301C21.5477 3.76825 21.4823 4.04684 21.325 4.30947L17.8937 2.25355C17.6571 2.64847 17.5477 3.0877 17.5477 3.51301H21.5477ZM21.3321 4.29739L22.0147 3.13987L18.5691 1.1081L17.8866 2.26563L21.3321 4.29739ZM19.9734 0.149516C19.4626 0.231924 19.1203 0.254576 18.8901 0.251703L18.8402 4.25139C19.3674 4.25797 19.9499 4.20503 20.6105 4.09845L19.9734 0.149516ZM18.8808 0.251609C18.6936 0.250143 18.5943 0.232774 18.5549 0.223688C18.522 0.216085 18.5346 0.21528 18.5683 0.234461L16.5902 3.71113C17.2572 4.09057 18.0096 4.24491 18.8495 4.25149L18.8808 0.251609ZM18.6246 0.267727C18.7077 0.318649 18.7678 0.36549 18.7997 0.391457C18.827 0.413756 18.8475 0.432494 18.8286 0.415677L16.1626 3.39763C16.1682 3.40262 16.3248 3.54964 16.5339 3.67787L18.6246 0.267727ZM18.7441 0.344212C17.6201 -0.553998 16.3546 -1.07141 15.0562 -1.11733L14.9148 2.88017C15.2194 2.89094 15.6802 3.01607 16.2471 3.46909L18.7441 0.344212ZM15.0612 -1.11715C13.8483 -1.16308 12.7184 -0.791918 11.7934 -0.135245L14.1088 3.12647C14.3551 2.95162 14.6256 2.86922 14.9099 2.87998L15.0612 -1.11715ZM11.7847 -0.129036C10.8657 0.530737 10.1624 1.46117 9.73983 2.54643L13.4673 3.99769C13.626 3.58997 13.8651 3.30147 14.1175 3.12026L11.7847 -0.129036ZM9.73922 2.54802C9.25735 3.78878 9.14936 5.21415 9.46332 6.67384L13.3739 5.83271C13.2123 5.08129 13.2892 4.45619 13.4679 3.9961L9.73922 2.54802ZM9.4186 6.25328V6.27217H13.4186V6.25328H9.4186ZM9.48596 6.78685C9.48991 6.80168 9.49348 6.81458 9.4959 6.82324C9.49832 6.8319 9.50068 6.84027 9.50208 6.8452C9.50376 6.85115 9.50468 6.85438 9.50555 6.85751C9.50635 6.86034 9.50667 6.86153 9.50673 6.86172C9.50677 6.8619 9.50637 6.86044 9.50567 6.85772C9.50496 6.85503 9.50377 6.85039 9.50226 6.84414C9.50076 6.83794 9.49869 6.82919 9.49631 6.8183C9.49395 6.80749 9.49095 6.79309 9.4877 6.7757L13.42 6.04268C13.4003 5.93703 13.3764 5.84803 13.3657 5.80901C13.3595 5.78636 13.3537 5.76563 13.3511 5.75658C13.347 5.74198 13.3487 5.748 13.3512 5.7575L9.48596 6.78685ZM9.50603 6.86311L9.51043 6.88201L13.406 5.97416L13.4016 5.95526L9.50603 6.86311ZM9.51672 6.90819C9.53357 6.97633 9.52781 6.9576 9.52158 6.92111C9.51352 6.87399 9.49442 6.74535 9.50692 6.57226C9.52047 6.3845 9.56701 6.19783 9.64381 6.02586C9.71518 5.86603 9.79454 5.75967 9.83563 5.70946L12.9311 8.24282C13.1943 7.92129 13.4531 7.46252 13.4965 6.86032C13.5297 6.40069 13.4099 5.98902 13.3998 5.94798L9.51672 6.90819ZM9.82881 5.71784C9.87363 5.66246 9.96842 5.55588 10.1205 5.44797C10.2845 5.33157 10.468 5.24703 10.6558 5.19703C10.8268 5.15148 10.9586 5.1464 11.0014 5.14542C11.0332 5.14469 11.052 5.1463 10.977 5.1432L10.8121 9.1398C10.8281 9.14046 11.2538 9.17715 11.6849 9.06235C12.2758 8.90503 12.6774 8.55638 12.9379 8.23444L9.82881 5.71784ZM10.8946 5.1415H10.736V9.1415H10.8946V5.1415ZM8.7456 8.258H10.5775V4.258H8.7456V8.258ZM12.5447 5.89696C12.3827 5.01478 12.4786 4.25489 12.7093 3.66375L8.983 2.20948C8.46509 3.53652 8.32311 5.05389 8.61037 6.61904L12.5447 5.89696ZM12.7117 3.65739C12.9313 3.08901 13.2732 2.66655 13.6587 2.3917L11.3363 -0.865096C10.2774 -0.109984 9.46552 0.960527 8.98053 2.21584L12.7117 3.65739ZM13.6587 2.3917C14.0366 2.12217 14.4738 1.98468 14.9405 2.00136L15.0834 -1.99608C13.7006 -2.04554 12.4027 -1.62553 11.3363 -0.865096L13.6587 2.3917ZM14.9431 2.00146C15.4194 2.01786 16.0387 2.20411 16.7306 2.76087L19.2382 -0.355497C17.9573 -1.3862 16.5245 -1.94644 15.0808 -1.99617L14.9431 2.00146ZM17.039 2.96511C17.6162 3.27475 18.2438 3.36604 18.8476 3.37265L18.8914 -0.627107C18.8318 -0.627759 18.7903 -0.630415 18.764 -0.632914C18.7377 -0.635409 18.7294 -0.637473 18.7357 -0.636186C18.7423 -0.634838 18.7648 -0.629813 18.7993 -0.617769C18.8344 -0.605517 18.8791 -0.586952 18.9299 -0.559736L17.039 2.96511ZM18.8506 3.37268C19.5621 3.37944 20.4224 3.26053 21.4671 3.04232L20.6492 -0.873173C19.7034 -0.675618 19.1722 -0.624443 18.8885 -0.627136L18.8506 3.37268ZM19.0581 1.08457V1.0893H23.0581V1.08457H19.0581ZM21.5319 3.03237C21.0505 3.14975 20.5875 3.03837 20.2467 2.81201L22.4597 -0.520026C21.9339 -0.869219 21.2595 -1.0184 20.5843 -0.853771L21.5319 3.03237ZM20.2255 2.79773C19.5155 2.31302 19.3659 1.40078 19.7607 0.735174L23.2011 2.77576C23.8425 1.69439 23.5784 0.243544 22.4809 -0.505748L20.2255 2.79773ZM19.7577 0.740193L18.9783 2.06308L22.4246 4.09362L23.204 2.77074L19.7577 0.740193ZM20.7015 5.07835H21.4721V1.07835H20.7015V5.07835ZM21.5653 5.07618C21.1723 5.09451 20.7534 4.96582 20.4219 4.66631L23.1035 1.69828C22.6047 1.24758 21.9745 1.05274 21.3789 1.08052L21.5653 5.07618ZM20.3965 4.64294C19.79 4.07563 19.7545 3.17846 20.2364 2.56743L23.3771 5.04445C24.1497 4.0649 24.0789 2.61022 23.1289 1.72164L20.3965 4.64294ZM20.2453 2.55621C19.9175 2.96582 19.6615 3.26707 19.4481 3.51393L22.4744 6.12952C22.7102 5.85667 23.0003 5.51538 23.3682 5.05567L20.2453 2.55621ZM19.4436 3.51918C19.0639 3.96152 18.6129 4.46285 18.2952 5.24052C18.0214 5.91051 17.8671 6.73553 17.6788 7.81298L21.6191 8.50159C21.8272 7.31124 21.9195 6.94566 21.998 6.75342C22.0326 6.66884 22.0395 6.6363 22.479 6.12427L19.4436 3.51918ZM17.6782 7.81661C17.3862 9.50575 16.8697 10.9968 16.1966 12.2771L19.737 14.1386C20.6139 12.4708 21.26 10.579 21.6198 8.49796L17.6782 7.81661ZM16.1967 12.2768C15.0269 14.5008 13.3736 16.0884 11.4987 17.0126L13.2673 20.6004C15.9545 19.2757 18.2028 17.0553 19.7369 14.1389L16.1967 12.2768ZM11.4943 17.0148C9.62343 17.9427 7.46822 18.244 5.22815 17.7951L4.44221 21.7172C7.53054 22.336 10.5892 21.9287 13.2717 20.5982L11.4943 17.0148ZM5.22925 17.7954C3.94071 17.5364 2.60923 17.025 1.27804 16.2237L-0.784831 19.6507C0.913675 20.6731 2.67354 21.3617 4.44112 21.717L5.22925 17.7954ZM1.07514 16.1169C1.6831 16.3936 2 16.9759 2 17.5356H-2C-2 18.4544 -1.48053 19.3485 -0.581936 19.7575L1.07514 16.1169ZM2 17.5356C2 18.2453 1.43308 19.0915 0.409537 19.0915V15.0915C-1.06317 15.0915 -2 16.3346 -2 17.5356H2ZM0.409537 19.0915C1.09722 19.0915 2.15449 19.0796 3.27611 18.8608L2.51026 14.9348C1.79116 15.0751 1.06056 15.0915 0.409537 15.0915V19.0915ZM3.28125 18.8598C4.24782 18.6686 5.33746 18.311 6.35437 17.6251L4.11746 14.309C3.66355 14.6152 3.11505 14.8152 2.50511 14.9358L3.28125 18.8598ZM6.34978 14.3059C5.81438 13.9469 5.06931 13.3502 4.52801 12.7656L1.59303 15.4833C2.39044 16.3445 3.3892 17.1367 4.12205 17.6282L6.34978 14.3059ZM4.52356 12.7608C4.28387 12.5036 4.11982 12.285 4.02371 12.1204C3.91758 11.9386 3.96017 11.936 3.96652 12.0812L-0.0296726 12.2558C0.00309316 13.0057 0.287881 13.655 0.569273 14.1371C0.860685 14.6362 1.22948 15.0933 1.59749 15.4881L4.52356 12.7608ZM3.95979 11.9829C3.97867 12.1854 3.95726 12.3634 3.91999 12.51L0.0432776 11.5245C-0.020418 11.7751 -0.0506342 12.057 -0.0229475 12.3541L3.95979 11.9829ZM3.92537 12.4883C3.74984 13.2127 2.9447 13.9127 1.9317 13.6243L3.02678 9.77714C1.58223 9.36596 0.327923 10.3494 0.0378931 11.5462L3.92537 12.4883ZM1.89309 13.6129C2.18153 13.7013 2.46324 13.7368 2.68004 13.7523L2.96541 9.76252C2.94988 9.76141 2.94802 9.7606 2.95881 9.76237C2.96468 9.76333 2.97627 9.76537 2.99289 9.76912C3.00925 9.7728 3.03395 9.77891 3.0654 9.78855L1.89309 13.6129ZM4.2379 10.3442C3.81605 9.92175 3.46425 9.47144 3.196 9.0273L-0.227952 11.0953C0.217187 11.8323 0.772526 12.5348 1.40755 13.1707L4.2379 10.3442ZM3.19642 9.02801C2.8215 8.40668 2.61259 7.81226 2.54057 7.28918L-1.42205 7.8348C-1.26508 8.97477 -0.839866 10.0812 -0.228376 11.0946L3.19642 9.02801ZM2.54399 7.31534C2.56595 7.49198 2.56216 7.72937 2.46928 7.99511L-1.30672 6.67531C-1.45244 7.09224 -1.46504 7.49026 -1.42547 7.80864L2.54399 7.31534ZM2.45283 8.04039C2.17954 8.76572 1.27595 9.33973 0.318305 8.92438L1.90993 5.25468C0.538344 4.65979 -0.84964 5.46059 -1.29027 6.63002L2.45283 8.04039ZM0.315004 8.92295C0.72214 9.1004 1.12844 9.17086 1.47255 9.19029L1.69806 5.19665C1.70775 5.1972 1.72946 5.19903 1.76219 5.2061C1.79445 5.21307 1.84685 5.22718 1.91323 5.25611L0.315004 8.92295ZM1.58531 9.19347C1.5613 9.19347 1.54401 9.19284 1.53793 9.19259C1.53334 9.19241 1.53098 9.19225 1.54423 9.19296C1.553 9.19343 1.57738 9.19477 1.60399 9.19584C1.63208 9.19697 1.67139 9.19819 1.71741 9.19819V5.19819C1.74142 5.19819 1.75871 5.19883 1.76479 5.19907C1.76938 5.19926 1.77174 5.19941 1.75849 5.1987C1.74972 5.19823 1.72534 5.1969 1.69873 5.19583C1.67064 5.1947 1.63133 5.19347 1.58531 5.19347V9.19347ZM3.47947 6.25206C3.13718 5.6146 2.96436 4.99338 2.89591 4.44925L-1.07281 4.94852C-0.947501 5.94461 -0.63592 7.04314 -0.0446379 8.14433L3.47947 6.25206ZM2.89597 4.44975C2.84497 4.04349 2.85528 3.68492 2.8941 3.40607C2.93567 3.10747 2.99903 2.97408 2.99564 2.98048L-0.538413 1.10685C-1.05664 2.08433 -1.25346 3.50957 -1.07287 4.94802L2.89597 4.44975ZM3.03018 2.91221C2.81552 3.35746 2.35998 3.73234 1.76058 3.78909L1.3836 -0.193111C0.484758 -0.10802 -0.226188 0.455849 -0.572954 1.17513L3.03018 2.91221ZM1.69565 3.79417C0.690921 3.85636 0.0504288 3.05552 0.0109393 2.32114L4.00517 2.10636C3.93926 0.880628 2.91125 -0.28873 1.44854 -0.198193L1.69565 3.79417ZM0.0131748 2.35678C0.036466 2.68163 0.134425 2.92209 0.167369 3.00083C0.213062 3.11004 0.259888 3.19587 0.289726 3.24777C0.350103 3.35281 0.410996 3.43952 0.451597 3.49511C0.53733 3.61248 0.634904 3.72987 0.729124 3.83713C0.923035 4.05789 1.18052 4.32393 1.48881 4.6128C2.10596 5.19106 2.98037 5.91106 4.04743 6.57865L6.16899 3.18764C5.35569 2.67881 4.68443 2.12553 4.22379 1.69391C3.99319 1.47784 3.82875 1.30479 3.73437 1.19733C3.68443 1.14049 3.67126 1.12149 3.68174 1.13583C3.68471 1.1399 3.71685 1.18343 3.7576 1.25432C3.77763 1.28916 3.81692 1.36017 3.8574 1.45692C3.88513 1.5232 3.98019 1.75355 4.00293 2.07072L0.0131748 2.35678ZM4.05176 6.58136C5.25654 7.33084 6.77381 8.02499 8.49515 8.24226L8.99606 4.27375C8.02238 4.15085 7.056 3.73943 6.16465 3.18493L4.05176 6.58136Z" fill="#143550" mask="url(#path-1-inside-1_82_1423)"/>
</svg>
